<svg xmlns="http://www.w3.org/2000/svg" xmlns:xlink="http://www.w3.org/1999/xlink" version="1.1" x="0px" y="0px" viewBox="0 0 90 90" enable-background="new 0 0 90 90" xml:space="preserve"><path fill="cornflowerblue" d="M86.026,47.116c-2.404-2.744-7.647-4.449-13.682-4.449c-0.554,0-1.12,0.021-1.689,0.052  c2.097-6.186,2.168-12.485-0.018-15.881l-0.307-0.478l-0.551-0.133c-0.619-0.15-1.301-0.227-2.028-0.227  c-3.386,0-8.352,1.748-13.077,5.467c-1.865-6.324-5.487-11.57-9.267-13.083l-0.526-0.21l-0.526,0.21  c-3.847,1.539-7.534,6.943-9.367,13.417c-4.851-3.952-10.013-5.801-13.502-5.801c-0.727,0-1.409,0.076-2.027,0.227l-0.551,0.133  l-0.307,0.478c-2.183,3.392-2.115,9.681-0.025,15.86c-0.333-0.011-0.671-0.031-0.999-0.031c-6.035,0-11.278,1.705-13.683,4.449  l-0.373,0.426l0.023,0.566c0.314,7.562,12.757,19.15,27.493,19.15c4.672,0,9.263-1.138,13.668-3.356l0.176,0.159l0.234-0.211  c4.435,2.252,9.061,3.408,13.769,3.408c0,0,0,0,0.001,0c14.736,0,27.178-11.588,27.491-19.15l0.023-0.566L86.026,47.116z   M67.752,28.836c0.276,0,0.539,0.015,0.786,0.044c1.335,2.749,1.251,8.356-1.017,14.174c-4.096,0.625-8.366,2.077-12.282,4.573  c1.16-5.01,0.822-9.561,0.263-12.689c-0.024-0.137-0.056-0.271-0.083-0.407C59.774,30.781,64.556,28.836,67.752,28.836z   M36.766,37.439c0.311,0.352,0.619,0.71,0.918,1.083c2.194,2.734,4.454,6.555,5.485,11.409c-0.311,1.632-0.489,3.369-0.505,5.206  c-1.31-1.803-2.764-3.376-4.317-4.748C36.494,45.535,36.386,40.902,36.766,37.439z M52.935,36.933  c0.452,3.559,0.422,8.497-1.607,13.67c-1.734,1.566-3.333,3.398-4.747,5.513c0.052-2.206-0.146-4.262-0.513-6.185  c1.031-4.854,3.292-8.674,5.486-11.408C52,37.966,52.464,37.442,52.935,36.933z M40.939,60.145  c-10.124-2.414-15.377-9.338-17.872-14.113c3.755,0.702,8.518,2.299,12.801,5.855C36.975,54.635,38.602,57.434,40.939,60.145z   M53.809,52.094c4.061-3.458,8.581-5.122,12.279-5.909c-2.467,4.657-7.541,11.239-17.106,13.771  C51.175,57.373,52.73,54.712,53.809,52.094z M44.881,21.267c2.699,1.477,5.908,6.148,7.419,12.266  c-1.018,0.975-2.012,2.038-2.957,3.215c-1.705,2.125-3.444,4.85-4.725,8.139c-1.281-3.289-3.019-6.014-4.724-8.138  c-0.814-1.014-1.664-1.945-2.534-2.808C38.827,27.621,42.121,22.776,44.881,21.267z M20.7,28.88  c3.22-0.383,8.708,1.701,13.563,6.041c-0.001,0.005-0.002,0.01-0.003,0.015c-0.555,3.104-0.89,7.61,0.238,12.574  c-4.098-2.57-8.575-4.017-12.824-4.569C19.447,37.164,19.374,31.611,20.7,28.88z M6.435,48.574  c1.777-1.589,5.733-3.072,11.142-3.072c0.557,0,1.281,0.02,2.133,0.086c0.088,0.196,0.17,0.393,0.262,0.588  c2.456,5.194,8.214,13.741,20.091,16.655c-2.952,1.057-5.973,1.594-9.024,1.594C17.65,64.424,7.324,54.329,6.435,48.574z   M58.884,64.424c-3.145,0-6.256-0.57-9.293-1.691c11.6-3.007,17.249-11.423,19.677-16.557c0.082-0.173,0.154-0.35,0.233-0.524  c1.163-0.117,2.138-0.15,2.844-0.15c5.407,0,9.363,1.484,11.141,3.072C82.597,54.33,72.271,64.424,58.884,64.424z"></path></svg>